<svg width="24" height="24" viewBox="0 0 24 24" fill="none" xmlns="http://www.w3.org/2000/svg">
<path d="M16.5 9.4L7.55 4.24C7.40675 4.16373 7.24816 4.11944 7.0853 4.11011C6.92244 4.10078 6.76005 4.12664 6.60936 4.18576C6.45867 4.24487 6.32314 4.33572 6.21248 4.45158C6.10183 4.56744 6.01887 4.70543 5.96938 4.85562L3.17 12.3556C3.11989 12.5065 3.10363 12.6667 3.12263 12.8246C3.14163 12.9824 3.19533 13.1341 3.27994 13.2689C3.36455 13.4037 3.47795 13.5184 3.6119 13.605C3.74585 13.6916 3.89707 13.748 4.055 13.7706L11.97 14.9206C12.1263 14.9431 12.2862 14.9315 12.4372 14.8867C12.5881 14.8419 12.7265 14.765 12.8424 14.6618C12.9583 14.5586 13.0488 14.4316 13.1073 14.2902C13.1659 14.1487 13.1911 13.9963 13.1813 13.8443L12.4688 5.54999C12.4488 5.23693 12.3136 4.94186 12.089 4.72186C11.8644 4.50186 11.5659 4.37108 11.2506 4.35561C11.0994 4.34849 10.9482 4.37283 10.8069 4.42698C10.6655 4.48112 10.5371 4.56388 10.4297 4.66999L9.4922 5.61749L16.5 9.4Z" fill="currentColor"/>
<path d="M12.0469 16.4206L4.17188 15.2794L4.26563 16.2356C4.29188 16.5469 4.43438 16.8375 4.66563 17.0531C4.89688 17.2688 5.20125 17.3956 5.51875 17.4094L11.8125 17.6794C11.9638 17.686 12.1149 17.661 12.256 17.6063C12.3971 17.5515 12.5252 17.468 12.6322 17.3612C12.7391 17.2543 12.823 17.1265 12.8783 16.9856C12.9336 16.8447 12.9591 16.6937 12.9531 16.5425L12.7406 13.6544L12.5156 16.2C12.5101 16.2754 12.4901 16.3492 12.4566 16.417C12.4231 16.4848 12.3769 16.5453 12.3206 16.595C12.2644 16.6447 12.1993 16.6826 12.1291 16.7068C12.0588 16.7309 11.9849 16.7408 11.9109 16.7356L12.0469 16.4206Z" fill="currentColor"/>
<path d="M19.625 11.0594L18.6875 10.5594L14.7969 8.43127L7.05 4.49065L6.1125 4.99065C5.79722 5.14652 5.53836 5.39952 5.37425 5.71361C5.21014 6.0277 5.14978 6.38654 5.20312 6.73752L6.60938 16.1156C6.66313 16.4669 6.82918 16.7912 7.08426 17.0394C7.33933 17.2876 7.67003 17.4463 8.02344 17.4919L19.625 18.9375V11.0594Z" fill="currentColor"/>
<path d="M21.375 19.8844V10.0313C21.375 9.73282 21.2565 9.44665 21.0455 9.23566C20.8345 9.02468 20.5484 8.90625 20.25 8.90625C19.9516 8.90625 19.6654 9.02468 19.4545 9.23566C19.2435 9.44665 19.125 9.73282 19.125 10.0313V18.9844L8.25 17.6438C8.02181 17.6164 7.81313 17.5008 7.66665 17.3199C7.52017 17.139 7.44697 16.9064 7.46156 16.6719L6.05531 7.29377C6.04072 7.17581 6.05088 7.05615 6.08513 6.9422C6.11939 6.82826 6.17701 6.72258 6.25438 6.63189C6.33174 6.5412 6.42713 6.46738 6.53461 6.41515C6.64209 6.36293 6.75935 6.33346 6.87844 6.32846C6.99752 6.32346 7.11603 6.34302 7.22738 6.38602C7.33873 6.42902 7.44056 6.49456 7.52664 6.57864C7.61273 6.66273 7.68134 6.76363 7.72839 6.87496C7.77545 6.9863 7.79997 7.10581 7.80031 7.22627L9.20656 16.6044C9.23119 16.7841 9.29384 16.9567 9.39042 17.1107C9.48699 17.2647 9.61537 17.3967 9.76726 17.4981C9.91914 17.5995 10.0912 17.6682 10.2717 17.6995C10.4522 17.7308 10.6371 17.7241 10.8148 17.6797L20.8031 19.9663C20.9915 20.0028 21.1865 19.9676 21.3507 19.8674C21.515 19.7672 21.6376 19.609 21.6952 19.4238C21.7528 19.2386 21.7412 19.0391 21.6626 18.862C21.5839 18.6849 21.4437 18.543 21.2681 18.463L21.375 19.8844Z" fill="currentColor"/>
</svg>
